<svg xmlns="http://www.w3.org/2000/svg" viewBox="0 0 365 131"><defs><style>.cls-1{fill:#0f5891;}</style></defs><title>Evamony Logo </title><g id="Layer_1" data-name="Layer 1"><path class="cls-1" d="M211,80.89a.28.28,0,0,1,0,.09l-.06.13A1.87,1.87,0,0,0,211,80.89Z"/><path class="cls-1" d="M210.82,81.58a.13.13,0,0,1,0,.06.78.78,0,0,1,.05-.14A.2.2,0,0,1,210.82,81.58Z"/><path class="cls-1" d="M341,71.28C336.06,75,331.14,82.68,326,86q6.71-22.35,6.87-27.88c-8.08-21.23-12.69,5.36-15.24,15.41-1.55,3.87-2.85,7.49-7.59,7.42q-3.32,0-3.31-2.84c-.41-5.12,11.71-35-7.11-24.88l-2.29,18.72-.14.29h0a7.67,7.67,0,0,0-.6.57c-22.9,23.76.43-11.6-9.91-18.53-4.13-3.57-13.55-3.27-17.46,1.46q-2.54-5.44-5.37-5.45C256.22,49.89,249.77,90,258,91c12.5-2.88,7.14-7.28,6.88-15.72,1-5,4.69-14.66,10.22-14.93,9.59-1-7.8,28.34,7.15,29.62a21.51,21.51,0,0,0,13.05-6.62c2.82,8.18,17.26,8,21.86.62q-.39,2.06-1.5,6.79c-49.4,4.89-.49,40.82,7.27,5.06C331,92.16,345.75,79.68,341,71.28Zm-34.59,34c-1.82.15-5.29-1.32-5.21-3.48,1.64-2.84,8.42-1.73,11.92-3Q310.12,105.25,306.41,105.25Z"/><path class="cls-1" d="M207.45,73.72a6.76,6.76,0,0,1-.51,3.14c-10.91,10.06-3.54-1.72-3.13-14.58-.42-10.76-15.58-9.12-20.46-1.66.5-9.6-12.76-11.64-17.69-4-7.38-15.06-12.94.48-14.71,15.11-4.15,3.44-10.48,10.17-11.19,9.14q-1.66,0-1.66-6.55c-.44-7.35,1-11.43,3.87-16.43,0-3.72-7.83-10.56-10.27-4.66C118.85,47.55,104.92,60,103,73.14c-3.79,2.77-8.52,5.38-10.67-1.3C111.37,48,77.21,43.36,84.7,70.57,81.15,78.75,74.62,85.15,74,71.84c-.68-5.53,2-12.14,1.74-16.91,0-5.43-9.33-3.88-10.74-1.1Q63,57.07,63.93,64.57c.29,2.4.59,4.76.91,7-1.45.91-3.32,3.3-4.78,4.35-12.3,11.93-35.38.56-20-14.61,9.07,3.74,18.67-6.34,4.82-6.87a13.17,13.17,0,0,0-2.61.24,10.42,10.42,0,0,1-3.08-8.93c31.9,17,34-30.4-4.74-11.69C32,33,29.73,28.49,27,28c-4.2,1.45.84,8.22,2.84,10.58-4,6.11-2.12,15.68,3.63,19.36C23.3,61.38,19.65,72.3,23.73,81.16,29.65,94,60,92.49,66.07,78.48c2.76,12.49,8,18,21.79-.17,3.21,5.88,11,5.93,15.52,2.81a16.85,16.85,0,0,0,2.81,5.72c6.51,6.49,19.24,3.51,23.22-4.26,1.31,12.71,15,6.62,21-1.26a23.37,23.37,0,0,0,1,7.58c1.86,5.43,12.11-1.89,11.25-3.64-.19-2.54-1.94-6.9-1.66-10.15-.41-2.92,5.29-15,8.93-14.81,7.44.08-5.58,34.21,6.55,30.26,14.27-4.9-.84-11.28,8.69-23.5,2.16-4.28,6.95-5.78,7.58-1.38-.47,6.23-5.11,24.17,4,24.24,4.72,0,11-2.9,13.8-7.64a2.75,2.75,0,0,0,.17-.29c.08-.15.16-.29.23-.44v0a.2.2,0,0,0,0-.08,7.41,7.41,0,0,0,.64-1.91,0,0,0,0,0,0,0c0-.14.09-.28.12-.41a10.15,10.15,0,0,0,.39-1.51c0-.11,0-.22.07-.32a22.4,22.4,0,0,0,.4-3.66v-.18c0-.62,0-1.24,0-1.86a.17.17,0,0,1,0,.07.48.48,0,0,1,0-.12c-.38-13.5,13.77-23.5,27.23-14.89,11.63,7.11,4.54,31-11.8,22.06-8.12-4.22-3.78-19.44,5.53-14.55a5,5,0,0,1,2.14,6.13c-1.07,3.24-6.16-.52-7,3.27.92,6.28,11.66,4.15,13.08-1,2.13-5.53-.3-11.17-5.18-14.05-16.4-8.56-27,16.3-11.53,25.74,13.85,9.06,30.21-3.12,27.94-18.69C245,30.81,201.22,45.22,207.45,73.72ZM54.69,40.87c-.9,4.79-9.87,2.2-13.19,0C43.78,37.78,54.35,35.74,54.69,40.87ZM127,76.73c-3.2,5.93-12.75,8.1-12.48-.94-.29-9.47,7.24-16.79,15.88-18.49C128.34,62.22,130.28,71.2,127,76.73ZM211,81l-.06.13a1.87,1.87,0,0,0,.07-.22A.28.28,0,0,1,211,81Z"/><path class="cls-1" d="M212.53,72.63c0,.28,0,.57,0,.85,0-.62,0-1.24,0-1.86a.17.17,0,0,1,0,.07A4.23,4.23,0,0,1,212.53,72.63Z"/><path class="cls-1" d="M210.59,82c.08-.15.16-.29.23-.44v0A3.3,3.3,0,0,1,210.59,82Z"/><path class="cls-1" d="M211,80.89a.28.28,0,0,1,0,.09l-.06.13A1.87,1.87,0,0,0,211,80.89Z"/></g></svg>