<svg xmlns="http://www.w3.org/2000/svg" viewBox="0 0 131 131"><defs><style>.cls-1{fill:#ebbe41;}</style></defs><title>Evamony Logo </title><g id="Layer_1" data-name="Layer 1"><path class="cls-1" d="M106.81,48.86C91-20.07-2.34,18,30.42,79a4.09,4.09,0,0,0,.35-1.09l0,.17c.14-.48.28-.95.43-1.41l0,0a7.67,7.67,0,0,1,.58-1.69l-.06.13a39.61,39.61,0,0,0,2.06-15.24l0,.13C32.85,35.52,58.48,17.18,83,32.75c21.09,12.82,8.38,56.13-21.25,40C47,65.15,54.79,37.58,71.67,46.38a9.08,9.08,0,0,1,3.89,11.1c-1.92,5.87-11.14-.92-12.72,6,1.7,11.36,21.14,7.45,23.69-1.82,3.82-10-.62-20.22-9.47-25.42C47.32,20.79,28.25,65.85,56.33,82.85,81.45,99.19,111,77.05,106.81,48.86Z"/><path class="cls-1" d="M64,131.7,64,127.2c-.05-4.34,0-8.68.08-13l.17-6.51a3,3,0,0,0-.29-2.18,3.78,3.78,0,0,0-2.67-1.32s-1.2-.24-6.19-2A33.67,33.67,0,0,1,48.92,99c-2-1.2-3.93-2.44-5.8-3.83A44.26,44.26,0,0,1,32.74,85a32.07,32.07,0,0,1-3.48-6.53A56,56,0,0,1,27,71.86c-.33-1.1-.56-2.23-.89-3.33-.17-.54-.39-1.08-.52-1.63a16.22,16.22,0,0,1-.26-1.7,39.46,39.46,0,0,1-.3-6.91l6.64-.71a1.54,1.54,0,0,1,1.42-.07c1.15.66.39,3.44.85,7.47.06.47.13,1,.24,1.53.21,1,.54,2,.84,2.94a47.41,47.41,0,0,0,2.16,5.6A24.39,24.39,0,0,0,40,79.88a35,35,0,0,0,8.56,7.56c1.66,1.13,3.42,2.15,5.19,3.13a49.12,49.12,0,0,0,5.45,2.68,49.55,49.55,0,0,0,5.59,1.87,12.25,12.25,0,0,0,1.35.3,11.25,11.25,0,0,0,1.29.22,10.37,10.37,0,0,0,1.14.11h.67a8.47,8.47,0,0,1,1,.08,7.06,7.06,0,0,1,1.43.4,6.56,6.56,0,0,1,3.75,4.06,6.23,6.23,0,0,1,.28,1.35,5.4,5.4,0,0,1,0,.62v.1l0,.41.09,1.62.16,3.26.22,6.51c.11,4.33.17,8.67.15,13l-.06,4.51"/></g></svg>